<?xml version="1.0" standalone="no"?>
<!DOCTYPE svg PUBLIC "-//W3C//DTD SVG 20010904//EN"
 "http://www.w3.org/TR/2001/REC-SVG-20010904/DTD/svg10.dtd">
<svg version="1.0" xmlns="http://www.w3.org/2000/svg"
 width="50.000000pt" height="50.000000pt" viewBox="0 0 50.000000 50.000000"
 preserveAspectRatio="xMidYMid meet">

<g transform="translate(0.000000,50.000000) scale(0.100000,-0.100000)"
fill="#000000" stroke="none">
<path d="M140 435 l-34 -35 74 -75 74 -75 -74 -75 -75 -75 38 -37 37 -38 112
113 113 112 -110 110 c-60 60 -112 110 -115 110 -4 0 -21 -16 -40 -35z m140
-90 l95 -95 -98 -97 -97 -98 -22 23 -22 22 74 75 74 75 -74 75 c-73 73 -73 75
-55 95 10 11 21 20 24 20 4 0 49 -43 101 -95z"/>
</g>
</svg>
